<?xml version="1.0" standalone="no"?>
<!DOCTYPE svg PUBLIC "-//W3C//DTD SVG 20010904//EN"
 "http://www.w3.org/TR/2001/REC-SVG-20010904/DTD/svg10.dtd">
<svg version="1.0" xmlns="http://www.w3.org/2000/svg"
 width="512.000000pt" height="512.000000pt" viewBox="0 0 512.000000 512.000000"
 preserveAspectRatio="xMidYMid meet">
<metadata>
Created by potrace 1.16, written by Peter Selinger 2001-2019
</metadata>
<g transform="translate(0.000000,512.000000) scale(0.100000,-0.100000)"
fill="#000000" stroke="none">
<path d="M1918 5041 c-139 -46 -238 -154 -279 -303 -6 -23 -22 -55 -34 -70
-13 -16 -27 -49 -31 -74 -11 -73 0 -196 21 -231 l18 -30 -51 -94 c-51 -96 -90
-189 -112 -269 -6 -25 -20 -64 -31 -87 -69 -155 -315 -1306 -294 -1373 12 -39
128 -106 232 -136 9 -2 7 -18 -7 -60 -11 -31 -20 -65 -20 -75 0 -10 -15 -51
-34 -91 -57 -122 -137 -351 -132 -374 10 -38 95 -122 152 -150 39 -19 53 -31
50 -43 -3 -9 -8 -38 -12 -64 l-7 -49 -299 4 -299 3 3 -35 c3 -34 5 -35 53 -42
88 -13 346 -37 461 -44 l112 -7 12 39 c7 22 17 44 21 50 5 6 135 393 289 860
154 467 327 990 385 1162 l104 313 -25 11 c-21 10 -24 18 -24 64 0 58 29 147
61 188 12 15 32 26 51 28 31 3 33 5 71 123 l40 120 43 0 c39 0 43 -2 38 -20
-3 -11 -24 -78 -47 -148 l-42 -129 -30 5 c-50 7 -74 -9 -100 -66 -50 -109 -41
-144 30 -110 19 9 37 14 39 12 3 -3 -238 -736 -534 -1629 -297 -894 -538
-1630 -536 -1636 4 -12 74 -40 80 -32 2 1 20 54 40 116 21 61 41 112 45 112 4
0 47 -14 97 -30 49 -17 167 -53 263 -80 l173 -50 187 0 c102 0 234 5 294 12
98 10 130 8 114 -8 -15 -15 -103 -25 -272 -31 l-180 -7 75 -17 c203 -48 565
-99 704 -99 80 0 125 18 200 80 28 24 59 40 74 40 14 0 48 -17 76 -39 82 -62
81 -62 176 -36 106 28 179 57 250 100 54 33 56 36 82 117 37 114 63 222 88
358 22 124 50 368 50 439 0 37 -2 42 -15 31 -21 -17 -20 -2 5 91 25 93 26 248
5 584 -13 207 -30 368 -34 313 -1 -10 -5 -18 -9 -18 -5 0 -5 28 0 63 8 55 -4
230 -18 278 -5 17 22 46 33 35 6 -6 14 -51 47 -276 89 -606 70 -1292 -48
-1760 -34 -134 -34 -134 -9 -105 67 83 138 255 181 440 122 520 81 1291 -116
2195 l-27 125 -41 3 -40 3 -11 -71 c-10 -64 -9 -84 12 -183 13 -62 30 -164 39
-227 12 -99 13 -117 0 -130 -20 -20 -29 -5 -43 70 -6 36 -19 101 -30 145 -20
88 -19 89 -46 -45 -21 -103 -90 -357 -109 -402 -11 -26 -23 -38 -36 -38 -11 0
-20 5 -20 10 0 6 15 63 34 128 18 64 36 133 39 152 3 19 18 89 32 155 15 66
41 208 60 315 25 149 36 194 46 191 95 -27 202 -23 241 9 20 16 22 26 20 78
-4 68 -5 67 82 99 41 15 65 19 77 13 12 -7 24 -4 42 10 57 45 78 213 37 292
-11 21 -20 51 -20 66 0 15 -13 55 -29 89 -16 34 -27 64 -25 67 2 3 1 4 -2 2
-7 -6 -59 54 -59 67 0 6 -7 11 -15 12 -9 2 -33 14 -54 29 -21 14 -47 26 -58
26 -11 0 -17 3 -15 8 9 14 -138 13 -199 -1 -67 -16 -94 -28 -114 -51 -14 -18
-35 -22 -24 -4 4 7 3 8 -5 4 -6 -4 -9 -11 -6 -15 5 -10 -29 -43 -37 -36 -3 3
-11 -2 -19 -12 -12 -14 -12 -15 0 -9 9 6 12 5 9 -5 -3 -8 -11 -13 -17 -11 -7
1 -10 -1 -7 -6 3 -5 -2 -19 -11 -32 -10 -13 -18 -31 -18 -40 -6 -61 -36 -127
-54 -115 -4 2 -7 -4 -8 -13 -1 -9 -5 -42 -8 -73 -4 -31 -4 -85 0 -120 6 -57
11 -67 42 -93 28 -24 38 -28 53 -19 13 9 21 8 34 -5 9 -9 31 -22 49 -28 38
-13 38 -10 1 -214 -89 -490 -214 -900 -374 -1225 -168 -342 -310 -501 -560
-623 -114 -57 -225 -100 -234 -91 -2 2 25 123 60 269 162 668 281 1254 314
1540 6 52 11 217 13 365 l2 270 -26 55 c-30 63 -97 141 -169 196 -27 21 -50
45 -50 54 0 9 27 96 60 195 33 98 57 182 52 186 -10 9 -74 30 -79 25 -2 -2
-25 -68 -52 -147 l-48 -144 -7 55 c-4 30 -16 73 -27 96 -11 22 -26 67 -34 99
-23 85 -61 149 -127 210 -74 69 -145 97 -258 101 -64 3 -99 -1 -142 -15z m246
-81 c59 -23 134 -82 164 -133 11 -18 27 -55 35 -84 13 -44 13 -54 2 -63 -11
-9 -20 0 -44 48 -67 133 -130 172 -281 173 -90 1 -160 -22 -198 -66 -29 -32
-92 -154 -92 -176 0 -6 -8 -1 -19 12 -53 65 63 238 193 288 69 27 169 27 240
1z m1781 -575 c22 -6 39 -17 37 -24 -1 -7 2 -9 9 -6 14 9 64 -39 94 -90 28
-48 47 -113 35 -120 -5 -3 -11 8 -15 25 -10 44 -87 124 -142 148 -74 31 -124
36 -193 18 -84 -22 -144 -65 -182 -132 -32 -58 -46 -67 -27 -18 6 16 12 39 14
52 3 25 73 104 86 96 4 -2 11 1 15 7 5 8 3 9 -6 4 -9 -5 -11 -4 -6 4 7 11 66
45 66 38 0 -2 21 2 48 9 49 13 98 10 167 -11z m-1527 -956 l-4 -90 -77 -77
c-42 -42 -79 -73 -83 -70 -3 4 12 62 35 129 33 99 48 131 78 161 20 21 41 38
46 38 5 0 8 -39 5 -91z m-20 -181 c-23 -124 -77 -208 -133 -208 -31 0 -44 25
-38 70 4 27 23 53 81 113 42 42 82 77 88 77 8 0 9 -14 2 -52z m564 -1559 c-3
-22 -18 -40 -58 -70 -111 -82 -289 -170 -351 -174 -18 -1 -39 -8 -47 -14 -19
-16 -223 -67 -232 -58 -16 16 24 36 120 61 177 47 377 142 521 249 28 20 50
37 51 37 0 0 -1 -14 -4 -31z m-942 -338 c0 -22 -34 -30 -160 -40 -206 -17
-267 -15 -273 8 -4 17 3 18 77 20 44 1 96 4 114 7 22 4 32 2 32 -6 0 -9 4 -9
13 -2 19 16 197 28 197 13z"/>
<path d="M750 1332 c0 -60 78 -237 109 -246 46 -15 303 -57 355 -59 l59 -2 43
129 c24 71 42 131 41 133 -2 1 -71 7 -153 13 -159 11 -407 37 -436 46 -13 4
-18 0 -18 -14z"/>
<path d="M4132 1043 c-11 -32 -29 -82 -41 -112 l-22 -53 50 35 49 35 52 -39
c138 -104 341 -103 472 2 l37 29 46 -35 c51 -38 156 -75 216 -75 65 0 98 49
64 96 -10 16 -30 23 -72 28 -79 9 -136 39 -185 97 -56 66 -75 65 -147 -10 -47
-49 -68 -62 -115 -76 -108 -31 -209 -2 -295 86 -65 66 -84 65 -109 -8z"/>
<path d="M311 1044 c-71 -59 -116 -81 -182 -90 -63 -8 -89 -27 -89 -64 0 -85
156 -79 290 11 l54 37 28 -19 c14 -11 57 -34 95 -51 58 -28 79 -32 148 -33 55
0 95 6 129 19 47 18 49 20 25 28 -13 5 -44 22 -69 37 -25 16 -67 31 -94 35
-66 8 -141 44 -199 94 -27 23 -56 42 -65 42 -9 0 -41 -21 -71 -46z"/>
<path d="M905 1020 c51 -54 146 -116 230 -148 l79 -30 23 71 c12 40 23 73 23
75 0 1 -11 2 -24 2 -27 0 -309 47 -341 56 -16 5 -14 0 10 -26z"/>
<path d="M983 499 c-118 -104 -222 -126 -338 -70 -33 15 -77 42 -99 60 -21 17
-47 31 -57 31 -9 0 -37 -16 -61 -35 -69 -55 -133 -85 -199 -92 -48 -5 -64 -11
-76 -29 -18 -29 -10 -59 23 -81 45 -29 169 0 260 62 l51 35 58 -34 c83 -51
149 -71 230 -70 77 0 148 26 229 84 l44 32 45 -35 c145 -111 339 -110 484 0
l32 25 43 -31 c53 -38 129 -68 194 -76 41 -6 53 -3 77 15 57 45 25 96 -71 110
-77 11 -115 31 -178 96 -28 30 -57 54 -64 54 -7 0 -36 -25 -66 -55 -69 -72
-119 -95 -209 -95 -88 0 -134 20 -214 94 -33 31 -65 56 -70 56 -6 0 -36 -23
-68 -51z"/>
<path d="M3611 416 c-117 -119 -250 -134 -385 -44 -27 18 -61 41 -75 50 -32
22 -53 16 -111 -33 -56 -47 -109 -70 -179 -78 -43 -5 -58 -12 -73 -32 -17 -23
-18 -30 -8 -50 18 -34 29 -39 82 -39 58 0 141 30 208 75 l50 34 51 -35 c149
-100 330 -94 468 15 l38 30 52 -39 c140 -105 342 -105 473 1 l37 29 46 -35
c51 -38 156 -75 216 -75 44 0 79 27 79 60 0 29 -35 60 -68 60 -16 0 -53 7 -82
16 -43 13 -66 29 -111 75 -36 37 -65 59 -79 59 -14 0 -43 -22 -79 -59 -47 -49
-68 -62 -116 -76 -108 -32 -207 -3 -293 86 -60 63 -83 64 -141 5z"/>
</g>
</svg>
